<svg width="106" height="73" viewBox="0 0 106 73" fill="none" xmlns="http://www.w3.org/2000/svg">
<path fill-rule="evenodd" clip-rule="evenodd" d="M16.2858 0.673187C15.6342 1.33042 15.433 2.08854 7.80922 32.6258L0 63.9053L0.065182 67.7827C0.129536 71.625 0.134916 71.665 0.658648 72.1887C1.66659 73.1966 2.08479 73.1235 8.71763 70.7803L14.822 68.6237L19.8917 70.3768C22.68 71.3409 25.5462 72.3256 26.2611 72.5648L27.5608 73L30.5031 72.0136C32.1213 71.4711 34.9887 70.4854 36.875 69.8232L40.3048 68.6191L46.4704 70.7652C49.8615 71.9457 52.8013 72.9113 53.0035 72.9113C53.2057 72.9113 56.0578 71.973 59.3415 70.8261C62.6254 69.6792 65.4518 68.7314 65.6225 68.7194C65.7933 68.7076 68.6592 69.6459 71.9911 70.8046C75.3233 71.9633 78.2171 72.9113 78.422 72.9113C78.6269 72.9113 81.5576 71.9436 84.9346 70.7611L91.0746 68.6106L97.2306 70.7735C103.918 73.1228 104.334 73.1955 105.341 72.1887C105.865 71.665 105.87 71.625 105.935 67.7827L106 63.9053L98.1908 32.6258C90.567 2.08854 90.3658 1.33042 89.7142 0.673187L89.0467 0H53H16.9533L16.2858 0.673187ZM32.7212 4.88589C32.7212 5.46876 31.0581 18.9188 30.9751 19.0062C30.9474 19.0357 29.1241 18.4348 26.9237 17.6713L22.9225 16.2828L19.4931 17.4401C17.6068 18.0766 16.0281 18.5642 15.9847 18.5236C15.9079 18.4517 19.2467 4.81381 19.4168 4.50518C19.4638 4.41984 22.4764 4.34982 26.1117 4.34982H32.7212V4.88589ZM50.7238 11.5995C50.7238 15.5869 50.6539 18.8497 50.5686 18.8501C50.4833 18.8505 48.7338 18.2717 46.6809 17.5638L42.9483 16.2766L39.2832 17.5391L35.6181 18.8016L35.62 18.2558C35.6208 17.9557 35.9925 14.7739 36.4458 11.1853C36.8992 7.59666 37.2709 4.59051 37.2717 4.50518C37.2727 4.41984 40.2999 4.34982 43.9987 4.34982H50.7238V11.5995ZM68.7283 4.50518C68.7291 4.59051 69.1008 7.59666 69.5542 11.1853C70.0075 14.7739 70.3792 17.9586 70.38 18.2624L70.3819 18.8149L66.7174 17.5449L63.0527 16.275L59.3104 17.5621C57.2523 18.2701 55.5026 18.8492 55.4223 18.8492C55.342 18.8492 55.2762 15.5869 55.2762 11.5995V4.34982H62.0013C65.7001 4.34982 68.7273 4.41984 68.7283 4.50518ZM88.3477 11.4516C89.3082 15.3006 90.0585 18.483 90.0153 18.5236C89.9718 18.5642 88.3932 18.0766 86.5069 17.4401L83.0774 16.2828L79.0763 17.6713C76.8758 18.4348 75.0526 19.0357 75.0249 19.0062C74.9417 18.9184 73.2788 5.46773 73.2788 4.8832V4.34402L79.94 4.39871L86.6012 4.45339L88.3477 11.4516ZM26.4778 22.1936C28.4891 22.8937 30.2022 23.5253 30.2848 23.5972C30.4147 23.7101 28.6453 38.7306 28.482 38.9013C28.4487 38.9361 26.3863 38.2604 23.8992 37.3996C21.412 36.5385 19.1436 35.8399 18.8583 35.8469C18.5731 35.8539 16.7102 36.4461 14.7185 37.1632C12.5472 37.945 11.0776 38.3752 11.0482 38.2381C11.0211 38.1121 11.8126 34.8036 12.8071 30.8858L14.615 23.7625L18.6501 22.3633C20.8694 21.5938 22.7158 20.9543 22.7531 20.9423C22.7905 20.9303 24.4666 21.4935 26.4778 22.1936ZM46.7866 22.2686C48.889 23.0083 50.635 23.6133 50.6665 23.6133C50.6979 23.6133 50.7238 27.0155 50.7238 31.1737C50.7238 35.332 50.6439 38.7341 50.5465 38.7341C50.4488 38.7341 48.4997 38.0817 46.2151 37.2842C43.9304 36.4867 41.8723 35.8343 41.6416 35.8343C41.4108 35.8343 39.4026 36.4714 37.1786 37.2502L33.135 38.666L33.1509 37.9234C33.1596 37.515 33.5555 34.1532 34.0304 30.4531L34.8939 23.7254L38.8255 22.345C40.9879 21.5859 42.8037 20.9556 42.8606 20.9444C42.9175 20.9332 44.6842 21.5291 46.7866 22.2686ZM67.071 22.3281L71.1061 23.727L72.0224 31.0213C72.5262 35.0331 72.8784 38.3754 72.8052 38.4487C72.7319 38.5223 70.8905 37.964 68.7132 37.2082C66.5361 36.4526 64.5542 35.8351 64.3092 35.8361C64.0642 35.8374 62.0094 36.4898 59.7429 37.2861C57.4764 38.0825 55.5442 38.7341 55.4492 38.7341C55.354 38.7341 55.2762 35.3421 55.2762 31.1963V23.6585L57.5007 22.8768C58.7242 22.447 60.4235 21.8386 61.2771 21.5248C62.1306 21.211 62.8756 20.9488 62.9325 20.9417C62.9894 20.9347 64.8517 21.5586 67.071 22.3281ZM87.2464 22.3465L91.3849 23.7643L93.1929 30.8867C94.1874 34.804 94.9789 38.1121 94.9517 38.2381C94.9224 38.3752 93.4528 37.945 91.2815 37.1632C89.2898 36.4461 87.4275 35.8533 87.1429 35.8459C86.8584 35.8384 84.5924 36.5394 82.1076 37.4037C79.6226 38.2681 77.5595 38.9444 77.5233 38.9065C77.3859 38.7636 75.5716 23.7347 75.6786 23.6247C75.7696 23.5311 82.652 21.0171 83.0044 20.9488C83.0613 20.9378 84.9702 21.5666 87.2464 22.3465ZM23.3399 41.8716C25.7113 42.6857 27.7185 43.4098 27.8002 43.4808C27.882 43.5517 27.4586 47.5227 26.8591 52.3054C25.9718 59.3867 25.7136 60.9918 25.4688 60.9512C25.3036 60.9236 23.0266 60.1459 20.409 59.2227C17.7914 58.2997 15.3238 57.5436 14.9254 57.5426C14.5271 57.5416 12.218 58.2361 9.79406 59.0855C5.38776 60.6301 5.38714 60.6301 5.5084 60.0908C5.57503 59.7939 6.53393 55.9704 7.63912 51.5937L9.6488 43.6364L14.2012 42.0239C16.705 41.1369 18.8155 40.4068 18.891 40.4014C18.9665 40.3958 20.9685 41.0574 23.3399 41.8716ZM46.1851 41.9447C48.6191 42.7992 50.6361 43.4982 50.6673 43.4982C50.6983 43.4982 50.7238 47.4131 50.7238 52.1979C50.7238 56.9827 50.688 60.8975 50.6443 60.8975C50.6005 60.8975 48.4356 60.145 45.8333 59.2251C43.2308 58.3055 40.7758 57.5486 40.3774 57.5434C39.9791 57.538 37.5786 58.2568 35.0429 59.1404C32.5072 60.0241 30.3967 60.7111 30.3531 60.667C30.3094 60.6229 30.7545 56.7662 31.3422 52.0964L32.4108 43.606L36.8597 42.0195C39.3066 41.1469 41.41 40.4235 41.5342 40.4119C41.6581 40.4006 43.7512 41.0903 46.1851 41.9447ZM69.0368 42.0023L73.5892 43.6018L74.6578 52.0943C75.2455 56.7652 75.6906 60.6229 75.6469 60.667C75.6032 60.7111 73.4928 60.0241 70.9571 59.1404C68.4214 58.2568 66.0209 57.537 65.6225 57.5407C65.2242 57.5447 62.7645 58.3015 60.1564 59.2227C57.5485 60.1438 55.3834 60.8975 55.3453 60.8975C55.3072 60.8975 55.2762 56.9929 55.2762 52.2205V43.5434L57.5007 42.7604C58.7242 42.3298 60.7029 41.626 61.8979 41.1964C63.0929 40.7668 64.1637 40.4126 64.2775 40.409C64.3913 40.4057 66.533 41.1226 69.0368 42.0023ZM91.7988 42.0286L96.3512 43.6466L98.3609 51.5989C99.4661 55.9727 100.425 59.7948 100.492 60.0924L100.614 60.6337L96.2061 59.0888C93.7822 58.2392 91.4729 57.5436 91.0746 57.5434C90.6762 57.5432 88.2086 58.2922 85.591 59.2079C82.9734 60.1239 80.6984 60.9019 80.5356 60.9371C80.2955 60.9889 80.0323 59.3697 79.1487 52.405C78.5491 47.6772 78.0814 43.7263 78.1093 43.6254C78.1571 43.4535 86.5896 40.4208 87.0395 40.4138C87.1533 40.4122 89.295 41.1388 91.7988 42.0286ZM26.2611 65.9365L27.5608 66.3717L30.5031 65.3853C32.1213 64.8428 34.9887 63.8571 36.875 63.1949L40.3048 61.9908L46.4704 64.1369C49.8615 65.3174 52.8013 66.283 53.0035 66.283C53.2057 66.283 56.0578 65.3447 59.3415 64.1978C62.6254 63.0509 65.4518 62.1031 65.6225 62.091C65.7933 62.0792 68.6592 63.0176 71.9911 64.1763C75.3233 65.335 78.2171 66.283 78.422 66.283C78.6269 66.283 81.558 65.3153 84.9357 64.1324L91.0768 61.9817L95.4728 63.5137C102.354 65.9117 101.628 65.5465 101.628 66.6109C101.628 67.1141 101.567 67.5258 101.493 67.5258C101.419 67.5258 99.2074 66.771 96.5786 65.8485C93.9496 64.9261 91.4729 64.1713 91.0746 64.1715C90.6762 64.1717 87.6584 65.1148 84.3685 66.2671L78.3866 68.3623L72.3692 66.265C69.0596 65.1117 66.0712 64.1601 65.7285 64.1508C65.3856 64.1413 62.3825 65.0858 59.0549 66.2495L53.0045 68.3654L46.9497 66.252C43.6194 65.0895 40.6144 64.145 40.2715 64.1531C39.9288 64.1614 36.9385 65.1123 33.6265 66.2667L27.6047 68.3654L21.6272 66.2706C18.3395 65.1183 15.3238 64.174 14.9254 64.1719C14.5271 64.1696 12.0492 64.9234 9.41869 65.8468C6.78824 66.7702 4.57681 67.5258 4.50418 67.5258C4.43155 67.5258 4.37216 67.1141 4.37216 66.6109C4.37216 65.5473 3.6475 65.9143 10.4765 63.5192L14.822 61.9952L19.8917 63.7483C22.68 64.7125 25.5462 65.6973 26.2611 65.9365Z" fill="white" fill-opacity="0.6"/>
</svg>
