<svg width="76" height="76" viewBox="0 0 76 76" fill="none" xmlns="http://www.w3.org/2000/svg">
<path d="M37.9987 30.0833C35.8991 30.0833 33.8854 30.9174 32.4008 32.4021C30.9161 33.8867 30.082 35.9004 30.082 38C30.082 40.0996 30.9161 42.1133 32.4008 43.5979C33.8854 45.0826 35.8991 45.9167 37.9987 45.9167C40.0983 45.9167 42.112 45.0826 43.5966 43.5979C45.0813 42.1133 45.9154 40.0996 45.9154 38C45.9154 35.9004 45.0813 33.8867 43.5966 32.4021C42.112 30.9174 40.0983 30.0833 37.9987 30.0833ZM37.9987 41.1667C37.1588 41.1667 36.3534 40.833 35.7595 40.2392C35.1657 39.6453 34.832 38.8399 34.832 38C34.832 37.1602 35.1657 36.3547 35.7595 35.7608C36.3534 35.167 37.1588 34.8333 37.9987 34.8333C38.8385 34.8333 39.644 35.167 40.2379 35.7608C40.8317 36.3547 41.1654 37.1602 41.1654 38C41.1654 38.8399 40.8317 39.6453 40.2379 40.2392C39.644 40.833 38.8385 41.1667 37.9987 41.1667ZM37.9987 30.0833C35.8991 30.0833 33.8854 30.9174 32.4008 32.4021C30.9161 33.8867 30.082 35.9004 30.082 38C30.082 40.0996 30.9161 42.1133 32.4008 43.5979C33.8854 45.0826 35.8991 45.9167 37.9987 45.9167C40.0983 45.9167 42.112 45.0826 43.5966 43.5979C45.0813 42.1133 45.9154 40.0996 45.9154 38C45.9154 35.9004 45.0813 33.8867 43.5966 32.4021C42.112 30.9174 40.0983 30.0833 37.9987 30.0833ZM37.9987 41.1667C37.1588 41.1667 36.3534 40.833 35.7595 40.2392C35.1657 39.6453 34.832 38.8399 34.832 38C34.832 37.1602 35.1657 36.3547 35.7595 35.7608C36.3534 35.167 37.1588 34.8333 37.9987 34.8333C38.8385 34.8333 39.644 35.167 40.2379 35.7608C40.8317 36.3547 41.1654 37.1602 41.1654 38C41.1654 38.8399 40.8317 39.6453 40.2379 40.2392C39.644 40.833 38.8385 41.1667 37.9987 41.1667ZM37.9987 6.33334C33.8402 6.33334 29.7224 7.15243 25.8804 8.74382C22.0384 10.3352 18.5475 12.6678 15.607 15.6083C9.66833 21.5469 6.33203 29.6015 6.33203 38C6.33203 46.3985 9.66833 54.4531 15.607 60.3917C18.5475 63.3322 22.0384 65.6648 25.8804 67.2562C29.7224 68.8476 33.8402 69.6667 37.9987 69.6667C46.3972 69.6667 54.4518 66.3304 60.3904 60.3917C66.3291 54.4531 69.6654 46.3985 69.6654 38C69.6654 33.8415 68.8463 29.7237 67.2549 25.8817C65.6635 22.0397 63.3309 18.5488 60.3904 15.6083C57.4499 12.6678 53.959 10.3352 50.117 8.74382C46.275 7.15243 42.1572 6.33334 37.9987 6.33334ZM37.9987 50.6667C29.6704 50.6667 22.1654 45.695 18.9987 38C21.1017 32.9637 25.1174 28.9678 30.1641 26.8898C35.2108 24.8117 40.8758 24.8214 45.9154 26.9167C50.923 29.0106 54.9047 32.9923 56.9987 38C53.832 45.695 46.327 50.6667 37.9987 50.6667ZM37.9987 30.0833C35.8991 30.0833 33.8854 30.9174 32.4008 32.4021C30.9161 33.8867 30.082 35.9004 30.082 38C30.082 40.0996 30.9161 42.1133 32.4008 43.5979C33.8854 45.0826 35.8991 45.9167 37.9987 45.9167C40.0983 45.9167 42.112 45.0826 43.5966 43.5979C45.0813 42.1133 45.9154 40.0996 45.9154 38C45.9154 35.9004 45.0813 33.8867 43.5966 32.4021C42.112 30.9174 40.0983 30.0833 37.9987 30.0833ZM37.9987 41.1667C37.1588 41.1667 36.3534 40.833 35.7595 40.2392C35.1657 39.6453 34.832 38.8399 34.832 38C34.832 37.1602 35.1657 36.3547 35.7595 35.7608C36.3534 35.167 37.1588 34.8333 37.9987 34.8333C38.8385 34.8333 39.644 35.167 40.2379 35.7608C40.8317 36.3547 41.1654 37.1602 41.1654 38C41.1654 38.8399 40.8317 39.6453 40.2379 40.2392C39.644 40.833 38.8385 41.1667 37.9987 41.1667Z" fill="#D82B35"/>
</svg>
