<svg width="99" height="80" viewBox="0 0 99 80" fill="none" xmlns="http://www.w3.org/2000/svg">
<path fill-rule="evenodd" clip-rule="evenodd" d="M2.73855 0.342415C2.10806 0.85256 1.8439 1.51111 1.97975 2.2342C2.10128 2.88097 2.86628 3.6715 3.37098 3.6715C3.59334 3.6715 3.63514 9.41275 3.63514 39.8765V76.0815L2.4444 76.1894C1.10851 76.3103 0.368868 76.7411 0.0965821 77.5563C-0.141064 78.2682 0.0632963 78.9704 0.671538 79.5333L1.17586 80H49.5H97.8241L98.3285 79.5333C98.9367 78.9704 99.1411 78.2682 98.9034 77.5563C98.6311 76.7411 97.8915 76.3103 96.5556 76.1894L95.3649 76.0815V39.8895C95.3649 4.02667 95.3683 3.69643 95.7469 3.57643C96.9394 3.19865 97.279 1.49507 96.3474 0.564831L95.7817 0L49.4665 0.00425108C5.87594 0.00830905 3.12715 0.0282124 2.73855 0.342415ZM91.4944 40V76.1353H76.2061H60.9178V61.8645C60.9178 52.1869 60.8509 47.4021 60.7098 46.9981C60.2782 45.7617 60.6074 45.7971 49.5 45.7971C38.3926 45.7971 38.7218 45.7617 38.2902 46.9981C38.1491 47.4021 38.0822 52.1869 38.0822 61.8645V76.1353H22.7939H7.50559V40V3.86473H49.5H91.4944V40ZM12.7307 7.75034C11.2243 8.34048 11.1874 10.4282 12.6696 11.1851C12.9765 11.3418 23.04 11.401 49.4001 11.401C88.583 11.401 86.4971 11.4539 87.0376 10.4454C87.2973 9.96116 87.2923 8.96676 87.0279 8.47343C86.5033 7.49469 88.1619 7.53527 49.361 7.54841C26.2192 7.55633 13.0405 7.62899 12.7307 7.75034ZM13.021 15.2367C12.398 15.4388 12.0284 15.7198 11.7913 16.1708C11.6329 16.4725 11.5696 19.4657 11.5696 26.6508V36.7088L12.1343 37.3399L12.699 37.971H22.862H33.025L33.6184 37.4035L34.2117 36.8359V26.5602V16.2846L33.7252 15.7988C33.4576 15.5316 32.9678 15.2587 32.6366 15.1927C31.8405 15.0336 13.5197 15.0748 13.021 15.2367ZM39.4368 15.3248C38.9755 15.4819 38.6517 15.7712 38.4212 16.2319C38.1125 16.8487 38.0827 17.7583 38.0827 26.57C38.0827 35.3818 38.1125 36.2914 38.4212 36.9082C38.6517 37.3689 38.9755 37.6582 39.4368 37.8153C40.3975 38.1422 58.6025 38.1422 59.5632 37.8153C60.0245 37.6582 60.3483 37.3689 60.5788 36.9082C60.8875 36.2914 60.9173 35.3818 60.9173 26.57C60.9173 17.7583 60.8875 16.8487 60.5788 16.2319C60.3483 15.7712 60.0245 15.4819 59.5632 15.3248C58.6025 14.9979 40.3975 14.9979 39.4368 15.3248ZM66.3914 15.2079C66.1555 15.2535 65.742 15.5527 65.4722 15.8728L64.9818 16.4547V26.5818V36.7088L65.5463 37.3399L66.1108 37.971L75.5611 38.0311C80.7587 38.064 85.3739 38.0381 85.8168 37.9735C86.3099 37.9014 86.8164 37.6618 87.1231 37.3557L87.624 36.8555V26.57V16.2846L87.1374 15.7988C86.8698 15.5316 86.38 15.2587 86.0489 15.1927C85.3868 15.0605 67.0809 15.0748 66.3914 15.2079ZM21.0522 26.5753V34.2131L18.1977 34.1598L15.3433 34.1063L15.2926 26.5217L15.242 18.9372H18.147H21.0522V26.5753ZM30.5348 26.57V34.2029H27.6319H24.7291V26.57V18.9372H27.6319H30.5348V26.57ZM47.5648 26.57V34.2029H44.7587H41.9526V26.57V18.9372H44.7587H47.5648V26.57ZM57.0474 26.57V34.2029H54.2413H51.4352V26.57V18.9372H54.2413H57.0474V26.57ZM74.4644 26.5753V34.2131L71.61 34.1598L68.7555 34.1063L68.7048 26.5217L68.6543 18.9372H71.5593H74.4644V26.5753ZM83.947 26.5753V34.2131L81.0926 34.1598L78.2381 34.1063L78.1874 26.5217L78.1369 18.9372H81.0419H83.947V26.5753ZM12.1352 46.3619L11.5696 46.9268V57.1469C11.5696 67.2556 11.574 67.3714 11.9752 67.8015C12.1983 68.0406 12.5958 68.3179 12.8586 68.4176C13.5497 68.68 32.2498 68.6556 33.009 68.3913C34.2479 67.96 34.2117 68.2999 34.2117 57.0933V46.9268L33.646 46.3619L33.0804 45.7971H22.8906H12.7009L12.1352 46.3619ZM65.5475 46.3619L64.9818 46.9268V57.1469C64.9818 67.2556 64.9863 67.3714 65.3874 67.8015C65.6106 68.0406 66.0081 68.3179 66.2709 68.4176C66.9619 68.68 85.662 68.6556 86.4212 68.3913C87.6601 67.96 87.624 68.2999 87.624 57.0933V46.9268L87.0583 46.3619L86.4926 45.7971H76.3029H66.1131L65.5475 46.3619ZM21.0061 57.1498L21.0566 64.7343H18.1517H15.2465V57.2303C15.2465 53.103 15.3069 49.6661 15.3806 49.5923C15.4543 49.5187 16.7389 49.4825 18.2351 49.5119L20.9554 49.5652L21.0061 57.1498ZM30.4887 57.1498L30.5392 64.7343H27.6343H24.7291V57.2303C24.7291 53.103 24.7895 49.6661 24.8632 49.5923C24.9369 49.5187 26.2216 49.4825 27.7177 49.5119L30.438 49.5652L30.4887 57.1498ZM57.0474 62.8019V76.1353H49.5H41.9526V62.8019V49.4686H49.5H57.0474V62.8019ZM74.4184 57.1498L74.4689 64.7343H71.5639H68.6587V57.2303C68.6587 53.103 68.7191 49.6661 68.7928 49.5923C68.8666 49.5187 70.1512 49.4825 71.6473 49.5119L74.3677 49.5652L74.4184 57.1498ZM83.901 57.1498L83.9515 64.7343H81.0465H78.1413V57.2303C78.1413 53.103 78.2017 49.6661 78.2755 49.5923C78.3492 49.5187 79.6338 49.4825 81.1299 49.5119L83.8503 49.5652L83.901 57.1498ZM44.5642 61.336C43.954 61.9453 43.7859 62.6692 44.0862 63.393C44.7405 64.9706 46.9949 64.931 47.5532 63.332C48.1811 61.5329 45.8956 60.0066 44.5642 61.336Z" fill="white" fill-opacity="0.6"/>
</svg>
