<svg width="48" height="42" viewBox="0 0 48 42" fill="none" xmlns="http://www.w3.org/2000/svg">
<path d="M40.1741 9.23291C36.5371 4.24291 30.648 1 24 1C12.954 1 4 9.954 4 21V22H2L7 29L11 22H9V21C9 12.716 15.716 6 24 6" stroke="#ED3131" stroke-width="2" stroke-miterlimit="10"/>
<path d="M7.82617 32.766C11.4632 37.756 17.3521 40.999 24.0001 40.999C35.0461 40.999 44.0001 32.045 44.0001 20.999V19.999H46.0001L41.0001 12.999L37.0001 19.999H39.0001V20.999C39.0001 29.283 32.2841 35.999 24.0001 35.999" stroke="#ED3131" stroke-width="2" stroke-miterlimit="10"/>
<path d="M31.0221 20.976C31.0221 20.421 30.9511 19.8839 30.8291 19.3669L32.7942 18.2319L30.7942 14.767L28.8331 15.9C28.0411 15.149 27.0751 14.5809 26.0001 14.2639V11.999H22.0001V14.275C20.9351 14.596 19.9792 15.1669 19.1952 15.9149L17.2052 14.767L15.2052 18.2319L17.2112 19.3889C17.0922 19.8999 17.0232 20.429 17.0232 20.976C17.0232 21.538 17.0951 22.081 17.2201 22.604L15.2041 23.767L17.2041 27.2319L19.2251 26.0659C20.0031 26.7989 20.9472 27.36 21.9982 27.677V29.999H25.9982V27.688C27.0602 27.375 28.0142 26.8169 28.8002 26.0809L30.7921 27.231L32.7921 23.766L30.8171 22.625C30.9471 22.097 31.0221 21.546 31.0221 20.976Z" stroke="#ED3131" stroke-width="2" stroke-miterlimit="10" stroke-linejoin="round"/>
<path d="M24 23.999C25.6569 23.999 27 22.6559 27 20.999C27 19.3422 25.6569 17.999 24 17.999C22.3431 17.999 21 19.3422 21 20.999C21 22.6559 22.3431 23.999 24 23.999Z" stroke="#ED3131" stroke-width="2" stroke-miterlimit="10"/>
</svg>
