<svg width="58" height="99" viewBox="0 0 58 99" fill="none" xmlns="http://www.w3.org/2000/svg">
<path fill-rule="evenodd" clip-rule="evenodd" d="M4.28378 0.119634C2.74531 0.590047 1.36389 1.72163 0.623366 3.11816L0.100618 4.10391L0.0504056 49.2969L0 94.4901L0.515937 95.6337C1.07294 96.8689 2.02696 97.8519 3.35174 98.5559L4.18763 99H29.0017H53.8157L54.6374 98.5631C55.8759 97.9044 56.799 97.0145 57.3799 95.9188L57.9027 94.933L57.9572 80.7954C58.0158 65.5737 58.0438 66.0192 56.9948 65.4794C56.183 65.0617 55.54 65.1484 54.8405 65.7703L54.2049 66.3354L54.1514 76.9061L54.0979 87.4769H28.9968H3.8957V65.6895V43.9022H29.0017H54.1076V48.0788C54.1076 50.5728 54.1884 52.4052 54.3081 52.6278C54.5607 53.0976 55.4931 53.5854 56.1385 53.5854C56.4096 53.5854 56.9175 53.3312 57.2671 53.0203L57.9027 52.4552V28.2796V4.10391L57.3799 3.11816C56.799 2.0224 55.8759 1.1325 54.6374 0.473848L53.8157 0.0369388L29.2936 0.00362829C15.8064 -0.0145763 4.55196 0.0375197 4.28378 0.119634ZM53.1384 4.10585C53.451 4.26679 53.797 4.566 53.9071 4.77109C54.0391 5.01647 54.1076 9.77657 54.1076 18.7129V32.2822H29.0017H3.8957V18.7129C3.8957 9.8153 3.9644 5.01588 4.09519 4.77264C4.62339 3.79056 3.60397 3.82949 28.9627 3.82116C49.6485 3.81438 52.6404 3.84963 53.1384 4.10585ZM8.71741 11.862C8.42567 12.0194 8.09735 12.3153 7.98758 12.5193C7.71823 13.0203 7.71901 23.0769 7.98856 23.5779C8.24117 24.0478 9.1736 24.5356 9.81896 24.5356C10.0901 24.5356 10.598 24.2813 10.9476 23.9705L11.5832 23.4054V18.0478V12.6903L10.9476 12.1252C10.2405 11.4965 9.5461 11.4144 8.71741 11.862ZM54.1076 38.0922V40.0289H29.0017H3.8957V38.0922V36.1555H29.0017H54.1076V38.0922ZM8.71741 48.0774C8.42567 48.2349 8.09735 48.5308 7.98758 48.7347C7.85952 48.9729 7.7881 52.3619 7.7881 58.2098V67.314L8.22638 67.821C8.51792 68.1584 8.93188 68.3637 9.46378 68.4346C10.158 68.5273 10.3497 68.4642 10.923 67.9545L11.5832 67.3675V58.1366V48.9057L10.9476 48.3406C10.2405 47.712 9.5461 47.6298 8.71741 48.0774ZM55.1021 57.7291C53.415 58.6597 54.1208 61.3321 56.0538 61.3321C57.0399 61.3321 58 60.386 58 59.4142C58 57.9601 56.3852 57.0213 55.1021 57.7291ZM54.1076 92.6218C54.1076 93.3211 54.0175 94.0609 53.9071 94.2658C53.3714 95.2621 54.3754 95.2235 29.0017 95.2235C3.62791 95.2235 4.63195 95.2621 4.09616 94.2658C3.98581 94.0609 3.8957 93.3211 3.8957 92.6218V91.3502H29.0017H54.1076V92.6218Z" fill="white" fill-opacity="0.6"/>
</svg>
