<svg width="49" height="43" viewBox="0 0 49 43" fill="none" xmlns="http://www.w3.org/2000/svg">
<path d="M29 27.0342C33.384 25.3932 36 20.9432 36 16.5322C36 16.5322 36 14.3643 36 13.7863C36 13.1143 37.3391 11.2982 37.3391 8.29322C37.3391 5.24922 36.753 3.80726 35.457 2.13026C34.146 0.435256 32 0.750237 32 2.38624V3.70228C32 8.25028 25.188 15.0342 23 15.0342C21.755 15.0342 19 15.0342 19 15.0342V32.0342H21C23.96 32.0342 23.834 34.0342 28 34.0342C28.832 34.0342 40.7981 34.0342 40.7981 34.0342C42.2511 34.0342 44.458 33.7012 45 31.0342C45 31.0342 46.828 21.9522 47 19.0342C47.172 16.1162 45.861 15.0342 43 15.0342H38" stroke="#ED3131" stroke-width="2" stroke-miterlimit="10"/>
<path d="M4 13.0342H19V34.0342H9" stroke="#ED3131" stroke-width="2" stroke-miterlimit="10"/>
<path d="M8 19.0342H0" stroke="#ED3131" stroke-width="2" stroke-miterlimit="10"/>
<path d="M23 6.03418H15" stroke="#ED3131" stroke-width="2" stroke-miterlimit="10"/>
<path d="M34 41.0342H20" stroke="#ED3131" stroke-width="2" stroke-miterlimit="10"/>
<path d="M18 41.0342H16" stroke="#ED3131" stroke-width="2" stroke-miterlimit="10"/>
<path d="M14 41.0342H12" stroke="#ED3131" stroke-width="2" stroke-miterlimit="10"/>
<path d="M13 6.03418H11" stroke="#ED3131" stroke-width="2" stroke-miterlimit="10"/>
</svg>
