<svg width="48" height="48" viewBox="0 0 48 48" fill="none" xmlns="http://www.w3.org/2000/svg">
<path d="M18 48V43C18 39.687 15.313 37 12 37C8.687 37 6 39.687 6 43V48" stroke="#ED3131" stroke-width="2" stroke-miterlimit="10" stroke-linejoin="round"/>
<path d="M23 27C25.7614 27 28 24.7614 28 22C28 19.2385 25.7614 17 23 17C20.2386 17 18 19.2385 18 22C18 24.7614 20.2386 27 23 27Z" stroke="#ED3131" stroke-width="2" stroke-miterlimit="10"/>
<path d="M6 31C8.76142 31 11 28.7614 11 26C11 23.2385 8.76142 21 6 21C3.23858 21 1 23.2385 1 26C1 28.7614 3.23858 31 6 31Z" stroke="#ED3131" stroke-width="2" stroke-miterlimit="10" stroke-linejoin="round"/>
<path d="M18.9999 19L6.18799 21" stroke="#ED3131" stroke-width="2" stroke-miterlimit="10" stroke-linejoin="round"/>
<path d="M20 26L10 29" stroke="#ED3131" stroke-width="2" stroke-miterlimit="10" stroke-linejoin="round"/>
<path d="M3 30L6 42" stroke="#ED3131" stroke-width="2" stroke-miterlimit="10" stroke-linejoin="round"/>
<path d="M10 29L16.243 38.757" stroke="#ED3131" stroke-width="2" stroke-miterlimit="10" stroke-linejoin="round"/>
<path d="M30 19H32L33 20H34L35 21V23L34 24H33L32 25H30" stroke="#ED3131" stroke-width="2" stroke-miterlimit="10"/>
<path d="M23 17V14L18 9.99997V0.999969H25H32V9.99997L27 14V19" stroke="#ED3131" stroke-width="2" stroke-miterlimit="10"/>
<path d="M38 20H40" stroke="#ED3131" stroke-width="2" stroke-miterlimit="10"/>
<path d="M38 24H40" stroke="#ED3131" stroke-width="2" stroke-miterlimit="10"/>
<path d="M42 22H44" stroke="#ED3131" stroke-width="2" stroke-miterlimit="10"/>
<path d="M42 18H44" stroke="#ED3131" stroke-width="2" stroke-miterlimit="10"/>
<path d="M42 26H44" stroke="#ED3131" stroke-width="2" stroke-miterlimit="10"/>
<path d="M46 24H48" stroke="#ED3131" stroke-width="2" stroke-miterlimit="10"/>
<path d="M46 20H48" stroke="#ED3131" stroke-width="2" stroke-miterlimit="10"/>
<path d="M46 28H48" stroke="#ED3131" stroke-width="2" stroke-miterlimit="10"/>
<path d="M46 16H48" stroke="#ED3131" stroke-width="2" stroke-miterlimit="10"/>
</svg>
