<svg width="47" height="46" viewBox="0 0 47 46" fill="none" xmlns="http://www.w3.org/2000/svg">
<path d="M6.36719 14V17.4629C6.36719 18.3239 6.91419 20.321 7.36719 21C7.68519 21.477 9.52924 23.2569 10.5992 24.2739C11.0892 24.7409 11.7412 25 12.4172 25H14.3662" stroke="#ED3131" stroke-width="2" stroke-miterlimit="10" stroke-linejoin="round"/>
<path d="M21.3671 14V17.4629C21.3671 18.3239 21.0521 20.0761 20.5981 20.7561C20.1451 21.4351 17.9102 23.5359 17.9102 23.5359" stroke="#ED3131" stroke-width="2" stroke-miterlimit="10" stroke-linejoin="round"/>
<path d="M11.3672 7V1H15.3672V7" stroke="#ED3131" stroke-width="2" stroke-miterlimit="10"/>
<path d="M17.3672 2.1731C19.3672 3.5341 21.3672 5.30692 21.3672 8.24292V9.55908L22.3672 10.218V12.998H13.3672H4.36719V10.218L5.36719 9.55908V8.24292C5.36719 5.30592 7.36719 3.5341 9.36719 2.1731" stroke="#ED3131" stroke-width="2" stroke-miterlimit="10"/>
<path d="M2.36692 41L11.3669 45H37.0489C37.8539 45 38.5799 44.5179 38.8929 43.7759L45.2079 28.7759C45.7639 27.4579 44.796 26 43.365 26H18.7209C17.9029 26 17.1669 26.4981 16.8639 27.2571L11.3669 41L2.17295 36.8201C1.17295 36.3661 0.726946 35.191 1.17295 34.187L3.83896 28.187C4.15996 27.465 4.87696 26.999 5.66697 26.999H7.36692L8.36692 24.999" stroke="#ED3131" stroke-width="2" stroke-miterlimit="10"/>
<path d="M27.3672 35H30.3672" stroke="#ED3131" stroke-width="2" stroke-miterlimit="10"/>
</svg>
