<svg width="17" height="10" viewBox="0 0 17 10" fill="none" xmlns="http://www.w3.org/2000/svg">
<path d="M15.1316 6.68628C16.4952 7.95315 16.7767 8.56019 16.8207 8.63937C17.3838 9.57193 16.2049 9.64232 16.2049 9.64232L13.9351 9.67751C13.9351 9.67751 13.4424 9.77428 12.809 9.3344C11.9556 8.75375 11.1374 7.23174 10.5303 7.43409C9.9057 7.63643 9.9233 9.00008 9.9233 9.00008C9.9233 9.00008 9.9233 9.19363 9.78253 9.34319C9.62418 9.51035 9.31626 9.44877 9.31626 9.44877H8.30451C8.30451 9.44877 6.06109 9.67751 4.0992 7.62764C1.94375 5.39301 0.0434428 0.994144 0.0434428 0.994144C0.0434428 0.994144 -0.06213 0.730212 0.0522405 0.58065C0.184207 0.439887 0.553711 0.439887 0.553711 0.439887H2.98189C2.98189 0.439887 3.21942 0.439887 3.36899 0.58065C3.50095 0.677425 3.58013 0.879773 3.58013 0.879773C3.58013 0.879773 3.96723 1.85632 4.4951 2.75369C5.50684 4.50444 5.97312 4.88274 6.29863 4.69799C6.8265 4.42526 6.67694 2.22583 6.67694 2.22583C6.67694 2.22583 6.68573 1.42523 6.4218 1.07332C6.21945 0.800594 5.83235 0.712616 5.6652 0.695021C5.52443 0.677426 5.75317 0.360707 6.0435 0.211145C6.48339 -1.96645e-07 7.24879 0 8.16375 0C8.87637 0 9.07872 0.0527865 9.35145 0.114371C10.196 0.316719 9.9057 1.09972 9.9057 2.96484C9.9057 3.57188 9.81773 4.39887 10.2312 4.68919C10.416 4.81236 10.8735 4.70679 12.0172 2.78008C12.545 1.86512 12.9497 0.782998 12.9497 0.782998C12.9497 0.782998 13.0377 0.598246 13.1697 0.510269C13.3104 0.439887 13.504 0.439887 13.504 0.439887H16.0553C16.0553 0.439887 16.8295 0.351909 16.9527 0.695021C17.0847 1.05573 16.6624 1.90911 15.6154 3.29035C13.9087 5.57776 13.7151 5.36662 15.1316 6.68628Z" fill="#676767"/>
</svg>
