<svg width="87" height="89" viewBox="0 0 87 89" fill="none" xmlns="http://www.w3.org/2000/svg">
<path fill-rule="evenodd" clip-rule="evenodd" d="M5.16316 0.511529L4.59263 1.02306V5.165V9.30712L5.07789 10.2984C5.71583 11.6009 6.96693 12.7243 8.22029 13.1197L9.18526 13.424V15.7543V18.0846H5.09921H1.01315L0.506576 18.5927L0 19.1007V53.5192V87.9377L0.418189 88.4254L0.836552 88.9131L18.3988 88.9593C31.3909 88.9934 36.0873 88.9532 36.4459 88.8045C37.2873 88.4556 37.644 87.3921 37.2272 86.4749C36.778 85.486 37.4696 85.5238 19.7656 85.5238H3.46614V80.9177V76.3117H43.5H83.5339V80.9177V85.5238H67.2344C49.5304 85.5238 50.2221 85.486 49.7728 86.4749C49.356 87.3921 49.7127 88.4556 50.5541 88.8045C50.9127 88.9532 55.6091 88.9934 68.6012 88.9593L86.1635 88.9131L86.5818 88.4254L87 87.9377V53.5192V19.1007L86.4934 18.5927L85.9868 18.0846H81.9008H77.8147V15.7543V13.424L78.7797 13.1197C80.0331 12.7243 81.2842 11.6009 81.9221 10.2984L82.4074 9.30712V5.165V1.02306L81.8368 0.511529L81.2663 0L71.2067 0.0474507L61.1471 0.0950752L60.7289 0.582792C60.3123 1.0686 60.3108 1.08598 60.3109 5.18881L60.3111 9.30712L60.8036 10.3516C61.4835 11.793 62.8475 12.9236 64.3401 13.2834L64.8167 13.3983V15.7415V18.0846H43.5H22.1833V15.7415V13.3983L22.6599 13.2832C24.2182 12.9069 25.5338 11.7984 26.2438 10.2631C26.6783 9.32363 26.686 9.23621 26.6875 5.18881C26.6892 1.08494 26.6877 1.06877 26.2711 0.582792L25.8529 0.0950752L15.7933 0.0474507L5.73368 0L5.16316 0.511529ZM23.2193 6.13505C23.2151 8.97271 23.1363 9.26054 22.238 9.72131C21.9796 9.85376 19.8584 9.91546 15.5609 9.91546C10.0183 9.91546 9.21403 9.8814 8.85892 9.63198C8.14733 9.13209 7.97211 8.38244 7.97211 5.83644V3.48441H15.5976H23.2231L23.2193 6.13505ZM79.0275 5.87433C79.0274 8.50689 78.8175 9.27757 77.9881 9.69316C77.4052 9.98534 65.3268 10.0109 64.762 9.72131C63.8637 9.26054 63.7849 8.97271 63.7807 6.13505L63.7769 3.48441H71.4024H79.0279L79.0275 5.87433ZM18.7171 39.1159V64.8401H15.6843H12.6514V39.1159V13.3917H15.6843H18.7171V39.1159ZM74.3486 39.1159V64.8401H71.3157H68.2829V39.1159V13.3917H71.3157H74.3486V39.1159ZM9.18526 28.1657V34.7706H6.3257H3.46614V28.1657V21.5609H6.3257H9.18526V28.1657ZM27.9024 28.1657V34.7706H25.0428H22.1833V28.1657V21.5609H25.0428H27.9024V28.1657ZM37.0877 28.1657V34.7706H34.2281H31.3685V28.1657V21.5609H34.2281H37.0877V28.1657ZM46.4462 28.1657V34.7706H43.5H40.5538V28.1657V21.5609H43.5H46.4462V28.1657ZM55.6315 28.1657V34.7706H52.7719H49.9124V28.1657V21.5609H52.7719H55.6315V28.1657ZM64.8167 28.1657V34.7706H61.9572H59.0976V28.1657V21.5609H61.9572H64.8167V28.1657ZM83.5339 28.1657V34.7706H80.6743H77.8147V28.1657V21.5609H80.6743H83.5339V28.1657ZM9.18526 41.7231V45.1993H6.3257H3.46614V41.7231V38.2468H6.3257H9.18526V41.7231ZM64.8167 41.7231V45.1993H43.5H22.1833V41.7231V38.2468H43.5H64.8167V41.7231ZM83.5339 41.7231V45.1993H80.6743H77.8147V41.7231V38.2468H80.6743H83.5339V41.7231ZM9.18526 56.7578V64.8401H6.3257H3.46614V56.7578V48.6756H6.3257H9.18526V56.7578ZM27.9024 56.7578V64.8401H25.0428H22.1833V56.7578V48.6756H25.0428H27.9024V56.7578ZM37.0877 56.7578V64.8401H34.2281H31.3685V56.7578V48.6756H34.2281H37.0877V56.7578ZM46.4462 56.7578V64.8401H43.5H40.5538V56.8738C40.5538 52.4921 40.6058 48.8551 40.6694 48.7915C40.7328 48.7277 42.0586 48.6756 43.6156 48.6756H46.4462V56.7578ZM55.6315 56.7578V64.8401H52.7719H49.9124V56.7578V48.6756H52.7719H55.6315V56.7578ZM64.8167 56.7578V64.8401H61.9572H59.0976V56.7578V48.6756H61.9572H64.8167V56.7578ZM83.5339 56.7578V64.8401H80.6743H77.8147V56.7578V48.6756H80.6743H83.5339V56.7578ZM83.5339 70.5759V72.8355H43.5H3.46614V70.5759V68.3164H43.5H83.5339V70.5759ZM42.6525 85.7664C41.1501 86.6016 41.7787 89 43.5 89C44.3781 89 45.2331 88.1509 45.2331 87.2787C45.2331 85.9738 43.7951 85.1311 42.6525 85.7664Z" fill="white" fill-opacity="0.51"/>
</svg>
